<svg xmlns="http://www.w3.org/2000/svg" version="1.1" xmlns:xlink="http://www.w3.org/1999/xlink" width="1000" height="1000"><style>
    #light-icon {
      display: inline;
    }
    #dark-icon {
      display: none;
    }

    @media (prefers-color-scheme: dark) {
      #light-icon {
        display: none;
      }
      #dark-icon {
        display: inline;
      }
    }
  </style><g id="light-icon"><svg xmlns="http://www.w3.org/2000/svg" version="1.1" xmlns:xlink="http://www.w3.org/1999/xlink" width="1000" height="1000"><g><g transform="matrix(2.3255813953488373,0,0,2.3255813953488373,-5.684341886080802e-14,34.88372093023253)"><svg xmlns="http://www.w3.org/2000/svg" version="1.1" xmlns:xlink="http://www.w3.org/1999/xlink" width="430" height="400"><svg width="430" height="400" viewBox="0 0 430 400" fill="none" xmlns="http://www.w3.org/2000/svg">
<path d="M164.158 245.172C153.251 244.55 142.634 244.442 132.14 243.252C81.432 237.471 38.2629 199.491 29.4224 149.85C21.6841 106.427 34.5353 68.8463 65.8253 38.0064C89.178 14.9745 117.743 2.4297 150.396 0.840489C174.705 -0.349497 199.099 0.0727556 223.454 0.0727556C290.55 -0.0142541 357.651 -0.0142541 424.757 0.0727556H430L261.005 157.435C267.894 157.435 273.527 157.389 279.184 157.435C292.739 157.565 306.264 158.548 319.176 162.878C365.101 178.294 393.421 209.71 400.639 257.977C406.816 299.496 394.516 336.048 364.504 365.652C344.182 385.705 319.222 397.428 290.749 398.941C263.018 400.422 235.172 399.854 207.38 399.9C141.183 400.008 74.9796 400.028 8.77161 399.962C5.82068 400.09 2.86668 399.793 0 399.079L164.158 245.172ZM160.836 313.761C162.42 313.868 163.408 313.999 164.403 313.999C204.204 313.999 243.99 313.983 283.761 313.953C300.056 313.907 311.239 305.07 315.227 289.101C317.056 281.808 318.288 274.368 319.865 266.998C321.22 260.526 322.605 254.054 324.105 247.037H238.571C249.631 193.05 260.584 139.593 271.529 86.197C271.201 86.0195 270.851 85.8853 270.488 85.7978C234.147 85.8439 197.774 85.5138 161.463 86.1356C143.859 86.435 129.041 93.9358 118.761 108.684C110.985 119.77 108.688 132.223 113.931 145.036C117.131 152.798 122.427 158.003 132.301 157.658C150.671 157.028 169.041 157.473 187.411 157.473H192.118C181.594 209.94 171.245 261.716 160.836 313.761Z" fill="#4169E1"></path>
</svg></svg></g></g></svg></g><g id="dark-icon"><svg xmlns="http://www.w3.org/2000/svg" version="1.1" xmlns:xlink="http://www.w3.org/1999/xlink" width="1000" height="1000"><g><g transform="matrix(2.3255813953488373,0,0,2.3255813953488373,-5.684341886080802e-14,34.88372093023253)"><svg xmlns="http://www.w3.org/2000/svg" version="1.1" xmlns:xlink="http://www.w3.org/1999/xlink" width="430" height="400"><svg width="430" height="400" viewBox="0 0 430 400" fill="none" xmlns="http://www.w3.org/2000/svg">
<path d="M164.158 245.172C153.251 244.55 142.634 244.442 132.14 243.252C81.432 237.471 38.2629 199.491 29.4224 149.85C21.6841 106.427 34.5353 68.8463 65.8253 38.0064C89.178 14.9745 117.743 2.4297 150.396 0.840489C174.705 -0.349497 199.099 0.0727556 223.454 0.0727556C290.55 -0.0142541 357.651 -0.0142541 424.757 0.0727556H430L261.005 157.435C267.894 157.435 273.527 157.389 279.184 157.435C292.739 157.565 306.264 158.548 319.176 162.878C365.101 178.294 393.421 209.71 400.639 257.977C406.816 299.496 394.516 336.048 364.504 365.652C344.182 385.705 319.222 397.428 290.749 398.941C263.018 400.422 235.172 399.854 207.38 399.9C141.183 400.008 74.9796 400.028 8.77161 399.962C5.82068 400.09 2.86668 399.793 0 399.079L164.158 245.172ZM160.836 313.761C162.42 313.868 163.408 313.999 164.403 313.999C204.204 313.999 243.99 313.983 283.761 313.953C300.056 313.907 311.239 305.07 315.227 289.101C317.056 281.808 318.288 274.368 319.865 266.998C321.22 260.526 322.605 254.054 324.105 247.037H238.571C249.631 193.05 260.584 139.593 271.529 86.197C271.201 86.0195 270.851 85.8853 270.488 85.7978C234.147 85.8439 197.774 85.5138 161.463 86.1356C143.859 86.435 129.041 93.9358 118.761 108.684C110.985 119.77 108.688 132.223 113.931 145.036C117.131 152.798 122.427 158.003 132.301 157.658C150.671 157.028 169.041 157.473 187.411 157.473H192.118C181.594 209.94 171.245 261.716 160.836 313.761Z" fill="white"></path>
</svg></svg></g></g></svg></g></svg>