<svg width="600" height="600" viewBox="0 0 600 600" fill="none" xmlns="http://www.w3.org/2000/svg">
<rect width="600" height="600" rx="72" fill="#4169E1"/>
<path d="M249.158 345.172C238.251 344.55 227.634 344.442 217.14 343.252C166.432 337.471 123.263 299.491 114.422 249.85C106.684 206.427 119.535 168.846 150.825 138.006C174.178 114.974 202.743 102.43 235.396 100.84C259.705 99.6505 284.099 100.073 308.454 100.073C375.55 99.9857 442.651 99.9857 509.757 100.073H515L346.005 257.435C352.894 257.435 358.527 257.389 364.184 257.435C377.739 257.565 391.264 258.548 404.176 262.878C450.101 278.294 478.421 309.71 485.639 357.977C491.816 399.496 479.516 436.048 449.504 465.652C429.182 485.705 404.222 497.428 375.749 498.941C348.018 500.422 320.172 499.854 292.38 499.9C226.183 500.008 159.98 500.028 93.7716 499.962C90.8207 500.09 87.8667 499.793 85 499.079L249.158 345.172ZM245.836 413.761C247.42 413.868 248.408 413.999 249.403 413.999C289.204 413.999 328.99 413.983 368.761 413.953C385.056 413.907 396.239 405.07 400.227 389.101C402.056 381.808 403.288 374.368 404.865 366.998C406.22 360.526 407.605 354.054 409.105 347.037H323.571C334.631 293.05 345.584 239.593 356.529 186.197C356.201 186.019 355.851 185.885 355.488 185.798C319.147 185.844 282.774 185.514 246.463 186.136C228.859 186.435 214.041 193.936 203.761 208.684C195.985 219.77 193.688 232.223 198.931 245.036C202.131 252.798 207.427 258.003 217.301 257.658C235.671 257.028 254.041 257.473 272.411 257.473H277.118C266.594 309.94 256.245 361.716 245.836 413.761Z" fill="white"/>
</svg>
