<svg width="1554" height="300" viewBox="0 0 1554 300" fill="none" xmlns="http://www.w3.org/2000/svg">
<path d="M123.309 183.879C115.116 183.412 107.142 183.332 99.259 182.439C61.1687 178.103 28.7416 149.619 22.101 112.387C16.2883 79.8201 25.9416 51.6347 49.4455 28.5048C66.9872 11.2308 88.4442 1.82227 112.972 0.630366C131.232 -0.262123 149.555 0.0545667 167.85 0.0545667C218.25 -0.0106906 268.654 -0.0106906 319.062 0.0545667H323L196.057 118.076C201.232 118.076 205.463 118.042 209.712 118.076C219.895 118.174 230.054 118.911 239.753 122.159C274.25 133.721 295.523 157.282 300.945 193.483C305.585 224.622 296.345 252.036 273.802 274.239C258.537 289.279 239.788 298.071 218.4 299.206C197.569 300.317 176.653 299.891 155.776 299.925C106.051 300.006 56.3219 300.021 6.5889 299.971C4.37228 300.068 2.15334 299.845 0 299.309L123.309 183.879ZM120.814 235.321C122.004 235.401 122.746 235.499 123.493 235.499C153.39 235.499 183.276 235.488 213.15 235.465C225.391 235.43 233.791 228.803 236.787 216.826C238.161 211.356 239.086 205.776 240.271 200.249C241.288 195.395 242.329 190.541 243.456 185.278H179.206C187.514 144.788 195.741 104.695 203.963 64.6478C203.716 64.5146 203.453 64.414 203.181 64.3484C175.882 64.3829 148.561 64.1353 121.285 64.6017C108.061 64.8263 96.9305 70.4518 89.2089 81.513C83.3675 89.8275 81.6426 99.167 85.581 108.777C87.9843 114.598 91.9629 118.502 99.3798 118.243C113.179 117.771 126.977 118.105 140.776 118.105H144.312C136.406 157.455 128.633 196.287 120.814 235.321Z" fill="#212121"/>
<path d="M1422 250V52H1456.36V250H1422ZM1511.73 250L1448.45 177.827L1509.82 111.1H1551.27L1480.36 184.091L1482.27 171.29L1554 250H1511.73Z" fill="#212121"/>
<path d="M1277 250V114.654H1309.72V146.5H1310.51V250H1277ZM1372.22 250V164.546C1372.22 156.231 1370.09 149.95 1365.84 145.704C1361.58 141.458 1355.38 139.335 1347.22 139.335C1340.13 139.335 1333.74 140.927 1328.07 144.112C1322.57 147.296 1318.23 151.719 1315.04 157.381C1312.02 163.042 1310.51 169.588 1310.51 177.019L1307.06 144.642C1311.67 134.735 1318.4 126.862 1327.27 121.023C1336.14 115.008 1346.78 112 1359.19 112C1373.91 112 1385.34 116.158 1393.5 124.473C1401.83 132.788 1406 143.846 1406 157.646V250H1372.22Z" fill="#212121"/>
<path d="M1224.66 250V111H1259.61V250H1224.66ZM1223 87.9263V50H1261V87.9263H1223Z" fill="#212121"/>
<path d="M1073 250V50H1108.99V250H1073ZM1090.17 250V221.389H1207V250H1090.17Z" fill="#212121"/>
<path d="M1034.2 250C1016.98 250 1004.25 245.963 996.011 237.889C987.952 229.631 983.923 217.336 983.923 201.004V74.937L1018.81 62V201.83C1018.81 208.62 1020.64 213.666 1024.31 216.969C1027.97 220.272 1033.74 221.924 1041.62 221.924C1044.73 221.924 1047.48 221.74 1049.86 221.373C1052.42 220.823 1054.8 220.181 1057 219.447V246.422C1054.8 247.523 1051.69 248.348 1047.66 248.899C1043.63 249.633 1039.14 250 1034.2 250ZM957 134.117V106.867H1057V134.117H957Z" fill="#212121"/>
<path d="M856 250V109.75H890.055V143.575H890.886V250H856ZM890.886 176.85L887.287 143.575C890.609 131.658 896.239 122.583 904.176 116.35C912.113 110.117 921.619 107 932.694 107C936.57 107 939.339 107.367 941 108.1V140.825C940.077 140.458 938.785 140.275 937.124 140.275C935.463 140.092 933.432 140 931.033 140C917.558 140 907.498 142.933 900.853 148.8C894.208 154.667 890.886 164.017 890.886 176.85Z" fill="#212121"/>
<path d="M767 250C752.507 250 739.714 246.942 728.621 240.826C717.707 234.711 709.208 226.257 703.125 215.464C697.042 204.492 694 191.991 694 177.96C694 163.93 697.042 151.609 703.125 140.996C709.208 130.384 717.707 122.109 728.621 116.174C739.714 110.058 752.507 107 767 107C781.672 107 794.464 110.058 805.379 116.174C816.293 122.109 824.792 130.384 830.875 140.996C836.958 151.609 840 163.93 840 177.96C840 191.991 836.869 204.492 830.607 215.464C824.523 226.257 816.024 234.711 805.11 240.826C794.196 246.942 781.493 250 767 250ZM767 222.749C774.157 222.749 780.598 220.95 786.324 217.353C792.049 213.575 796.522 208.359 799.743 201.704C802.963 194.869 804.574 186.864 804.574 177.691C804.574 164.2 800.995 153.587 793.838 145.853C786.86 138.118 777.914 134.251 767 134.251C756.086 134.251 747.05 138.118 739.893 145.853C732.737 153.587 729.158 164.2 729.158 177.691C729.158 186.864 730.768 194.869 733.989 201.704C737.388 208.359 741.862 213.575 747.408 217.353C753.134 220.95 759.664 222.749 767 222.749Z" fill="#212121"/>
<path d="M544 250V51H578.812V250H544ZM642.911 250V161.003C642.911 152.343 640.701 145.801 636.28 141.379C631.86 136.957 625.413 134.746 616.94 134.746C609.572 134.746 602.942 136.404 597.047 139.721C591.337 143.038 586.825 147.644 583.509 153.54C580.378 159.437 578.812 166.254 578.812 173.993L575.221 140.274C580.01 129.955 587.009 121.756 596.219 115.675C605.428 109.41 616.48 106.278 629.373 106.278C644.661 106.278 656.542 110.608 665.014 119.268C673.671 127.928 678 139.444 678 153.817V250H642.911Z" fill="#212121"/>
<path d="M456.256 250C431.984 250 412.62 244.442 398.164 233.327C383.887 222.032 375.499 206.166 373 185.728H406.463C408.069 197.561 413.334 206.794 422.257 213.427C431.181 219.881 442.87 223.108 457.326 223.108C469.284 223.108 478.386 220.957 484.632 216.654C491.057 212.172 494.269 205.987 494.269 198.099C494.269 191.107 492.306 185.459 488.38 181.157C484.454 176.854 477.85 173.358 468.57 170.669L433.769 160.181C416.1 154.803 403.072 147.721 394.684 138.936C386.474 130.152 382.37 119.126 382.37 105.859C382.37 94.7441 385.225 85.0631 390.936 76.8162C396.647 68.5694 404.678 62.2049 415.029 57.723C425.559 53.241 437.784 51 451.705 51C473.121 51 490.165 56.2887 502.836 66.8662C515.686 77.2644 523.003 91.4275 524.788 109.355H491.325C489.362 98.5987 484.9 90.7104 477.94 85.6905C470.979 80.4914 461.61 77.8919 449.831 77.8919C439.48 77.8919 431.27 79.9536 425.202 84.077C419.134 88.2004 416.1 93.8477 416.1 101.019C416.1 106.935 417.885 111.955 421.454 116.078C425.202 120.202 432.073 123.787 442.067 126.835L477.404 137.592C495.073 142.791 507.922 149.873 515.953 158.836C523.984 167.8 528 179.185 528 192.989C528 211.276 521.664 225.349 508.993 235.209C496.5 245.07 478.921 250 456.256 250Z" fill="#212121"/>
</svg>
